<svg id="Capa_2" data-name="Capa 2" xmlns="http://www.w3.org/2000/svg" viewBox="0 0 560.1 887.5"><defs><style>.cls-1,.cls-3{font-size:594.62px;}.cls-1,.cls-2{fill:#6c5b7b;}.cls-1,.cls-2,.cls-3,.cls-4{font-family:Baskerville-SemiBold, Baskerville;font-weight:700;}.cls-2,.cls-4{font-size:554.29px;}.cls-3{fill:#f67280;}.cls-4{fill:#c66c84;}.cls-5{fill:#fff;}</style></defs><title>flores</title><text class="cls-1" transform="translate(173.49 505.8)">S</text><text class="cls-2" transform="translate(1.51 687.49)">V</text><text class="cls-3" transform="translate(177.59 496.78)">S</text><text class="cls-4" transform="translate(5.62 678.46)">V</text><rect class="cls-5" x="22.31" y="322.1" width="24.05" height="5.01" rx="2.5" ry="2.5"/><rect class="cls-5" x="54.04" y="322.1" width="24.05" height="5.01" rx="2.5" ry="2.5"/><rect class="cls-5" x="88.33" y="322.1" width="24.05" height="5.01" rx="2.5" ry="2.5"/><rect class="cls-5" x="124.46" y="322.1" width="24.05" height="5.01" rx="2.5" ry="2.5"/><rect class="cls-5" x="156.07" y="322.1" width="24.05" height="5.01" rx="2.5" ry="2.5"/><rect class="cls-5" x="7054.31" y="7151.03" width="24.05" height="5.01" rx="2.5" ry="2.5" transform="translate(4211.61 -8817.28) rotate(68.79)"/><rect class="cls-5" x="7065.79" y="7180.6" width="24.05" height="5.01" rx="2.5" ry="2.5" transform="translate(4246.51 -8809.11) rotate(68.79)"/><rect class="cls-5" x="7078.2" y="7212.57" width="24.05" height="5.01" rx="2.5" ry="2.5" transform="matrix(0.36, 0.93, -0.93, 0.36, 4284.23, -8800.27)"/><rect class="cls-5" x="7091.27" y="7246.25" width="24.05" height="5.01" rx="2.5" ry="2.5" transform="translate(4323.97 -8790.96) rotate(68.79)"/><rect class="cls-5" x="7102.71" y="7275.73" width="24.05" height="5.01" rx="2.5" ry="2.5" transform="translate(4358.75 -8782.81) rotate(68.79)"/><rect class="cls-5" x="7115.73" y="7309.28" width="24.05" height="5.01" rx="2.5" ry="2.5" transform="translate(4398.34 -8773.54) rotate(68.79)"/><rect class="cls-5" x="7127.21" y="7338.86" width="24.05" height="5.01" rx="2.5" ry="2.5" transform="translate(4433.24 -8765.36) rotate(68.79)"/><rect class="cls-5" x="7139.62" y="7370.83" width="24.05" height="5.01" rx="2.5" ry="2.5" transform="translate(4470.96 -8756.53) rotate(68.79)"/><rect class="cls-5" x="7152.69" y="7404.51" width="24.05" height="5.01" rx="2.5" ry="2.5" transform="matrix(0.36, 0.93, -0.93, 0.36, 4510.71, -8747.22)"/><rect class="cls-5" x="7164.13" y="7433.98" width="24.05" height="5.01" rx="2.5" ry="2.5" transform="translate(4545.48 -8739.07) rotate(68.79)"/><rect class="cls-5" x="7197.39" y="7424.3" width="24.05" height="5.01" rx="2.5" ry="2.5" transform="translate(9874.04 -3158.13) rotate(112.67)"/><rect class="cls-5" x="7211.32" y="7390.96" width="24.05" height="5.01" rx="2.5" ry="2.5" transform="translate(9862.57 -3217.17) rotate(112.67)"/><rect class="cls-5" x="7224.53" y="7359.31" width="24.05" height="5.01" rx="2.5" ry="2.5" transform="translate(9851.69 -3273.2) rotate(112.67)"/><rect class="cls-5" x="7236.76" y="7330.04" width="24.05" height="5.01" rx="2.5" ry="2.5" transform="translate(9841.61 -3325.04) rotate(112.67)"/><rect class="cls-5" x="7251.18" y="7293.2" width="24.05" height="5.01" rx="2.5" ry="2.5" transform="translate(9794.48 -3469.55) rotate(112.19)"/><rect class="cls-5" x="7263.12" y="7263.93" width="24.05" height="5.01" rx="2.5" ry="2.5" transform="translate(9783.82 -3520.93) rotate(112.19)"/><rect class="cls-5" x="7276.76" y="7230.47" width="24.05" height="5.01" rx="2.5" ry="2.5" transform="translate(9771.64 -3579.66) rotate(112.19)"/><rect class="cls-5" x="7289.71" y="7198.72" width="24.05" height="5.01" rx="2.5" ry="2.5" transform="translate(9760.08 -3635.39) rotate(112.19)"/><rect class="cls-5" x="7301.69" y="7169.34" width="24.05" height="5.01" rx="2.5" ry="2.5" transform="translate(9749.39 -3686.95) rotate(112.19)"/><rect class="cls-5" x="7180.09" y="7168.47" width="22.18" height="4.62" rx="2.31" ry="2.31" transform="translate(-6914.24 7599.12) rotate(-90.26)"/><rect class="cls-5" x="7180.22" y="7197.63" width="22.18" height="4.62" rx="2.31" ry="2.31" transform="matrix(0, -1, 1, 0, -6943.27, 7628.55)"/><rect class="cls-5" x="7180.37" y="7230.96" width="22.18" height="4.62" rx="2.31" ry="2.31" transform="translate(-6976.44 7662.18) rotate(-90.26)"/><rect class="cls-5" x="7180.51" y="7262.59" width="22.18" height="4.62" rx="2.31" ry="2.31" transform="translate(-7007.93 7694.09) rotate(-90.26)"/><rect class="cls-5" x="7211.91" y="7227.93" width="24.05" height="5.01" rx="2.5" ry="2.5" transform="translate(1429.96 -9717.85) rotate(51.56)"/><rect class="cls-5" x="7231.63" y="7252.78" width="24.05" height="5.01" rx="2.5" ry="2.5" transform="translate(-642.71 -9750.77) rotate(39.81)"/><rect class="cls-5" x="7288.33" y="7280.25" width="24.05" height="5.01" rx="2.5" ry="2.5" transform="translate(-4912.1 -8390.34) rotate(14.49)"/><rect class="cls-5" x="354.14" y="490.13" width="24.05" height="5.01" rx="2.5" ry="2.5"/><rect class="cls-5" x="7354.94" y="7280.9" width="24.05" height="5.01" rx="2.5" ry="2.5" transform="translate(-8503.69 -4807.54) rotate(-13.93)"/><rect class="cls-5" x="7383.78" y="7267.09" width="24.05" height="5.01" rx="2.5" ry="2.5" transform="translate(-9836 -1002.12) rotate(-36.32)"/><rect class="cls-5" x="7408.92" y="7243.33" width="24.05" height="5.01" rx="2.5" ry="2.5" transform="translate(-9871.88 1426.25) rotate(-49.71)"/><rect class="cls-5" x="7425.77" y="7214.98" width="24.05" height="5.01" rx="2.5" ry="2.5" transform="translate(-9214.14 4112.48) rotate(-65)"/><rect class="cls-5" x="7434.91" y="7183.24" width="24.05" height="5.01" rx="2.5" ry="2.5" transform="translate(-7791.79 6609.36) rotate(-80.91)"/><rect class="cls-5" x="7433.28" y="7151.99" width="24.05" height="5.01" rx="2.5" ry="2.5" transform="translate(-3856.2 9731.33) rotate(-109.04)"/><rect class="cls-5" x="7420.77" y="7125.14" width="24.05" height="5.01" rx="2.5" ry="2.5" transform="translate(-1990.62 10333.41) rotate(-120)"/><rect class="cls-5" x="7400.56" y="7100.83" width="24.05" height="5.01" rx="2.5" ry="2.5" transform="translate(1239.92 10544.13) rotate(-138.22)"/><rect class="cls-5" x="7377.06" y="7084.08" width="24.05" height="5.01" rx="2.5" ry="2.5" transform="translate(2697.6 10273.51) rotate(-146.65)"/><rect class="cls-5" x="7349.42" y="7069.2" width="24.05" height="5.01" rx="2.5" ry="2.5" transform="translate(3930.21 9852.54) rotate(-154.12)"/><rect class="cls-5" x="7322.41" y="7056.1" width="24.05" height="5.01" rx="2.5" ry="2.5" transform="translate(3884.62 9815.86) rotate(-154.12)"/><rect class="cls-5" x="7293.77" y="7042.2" width="24.05" height="5.01" rx="2.5" ry="2.5" transform="translate(3836.29 9776.96) rotate(-154.12)"/><rect class="cls-5" x="7264.6" y="7030.38" width="24.05" height="5.01" rx="2.5" ry="2.5" transform="translate(3786.03 9741.77) rotate(-154.12)"/><rect class="cls-5" x="7238.13" y="7009.42" width="24.05" height="5.01" rx="2.5" ry="2.5" transform="translate(-1368.73 10166.92) rotate(-124.62)"/><rect class="cls-5" x="7225.36" y="6980.58" width="24.05" height="5.01" rx="2.5" ry="2.5" transform="translate(-5461.24 8451.97) rotate(-99.23)"/><rect class="cls-5" x="7227.91" y="6949.8" width="24.05" height="5.01" rx="2.5" ry="2.5" transform="translate(-8504.01 5027.36) rotate(-72.86)"/><rect class="cls-5" x="7245.42" y="6925.82" width="24.05" height="5.01" rx="2.5" ry="2.5" transform="translate(-9697.3 -825.33) rotate(-38.19)"/><rect class="cls-5" x="7273.39" y="6914.14" width="24.05" height="5.01" rx="2.5" ry="2.5" transform="matrix(0.98, -0.21, 0.21, 0.98, -8268.36, -5092.42)"/><rect class="cls-5" x="7305.18" y="6914.14" width="24.05" height="5.01" rx="2.5" ry="2.5" transform="translate(-5281.62 -8224.96) rotate(12.6)"/><rect class="cls-5" x="7335.93" y="6923.88" width="24.05" height="5.01" rx="2.5" ry="2.5" transform="translate(-3535.09 -9176.32) rotate(23.87)"/><rect class="cls-5" x="7360.46" y="6940.36" width="24.05" height="5.01" rx="2.5" ry="2.5" transform="translate(101.62 -9974.67) rotate(45)"/><rect class="cls-5" x="7377.94" y="6963.72" width="24.05" height="5.01" rx="2.5" ry="2.5" transform="translate(3298.71 -9568.92) rotate(63.14)"/><rect class="cls-5" x="7391.94" y="6991.37" width="24.05" height="5.01" rx="2.5" ry="2.5" transform="translate(4302.99 -9223.82) rotate(68.94)"/><rect class="cls-5" x="7412.48" y="6984.33" width="22.18" height="4.62" rx="2.31" ry="2.31" transform="matrix(0, -1, 1, 0, -6496.66, 7646.55)"/><rect class="cls-5" x="7412.33" y="6951" width="22.18" height="4.62" rx="2.31" ry="2.31" transform="translate(-6463.48 7612.92) rotate(-90.26)"/><rect class="cls-5" x="7412.48" y="6918.96" width="22.18" height="4.62" rx="2.31" ry="2.31" transform="translate(-6431.29 7580.88) rotate(-90.26)"/></svg>